<?xml version="1.0" encoding="utf-8"?>
<!-- Generator: Adobe Illustrator 26.3.1, SVG Export Plug-In . SVG Version: 6.00 Build 0)  -->
<svg version="1.1" id="图层_1" xmlns="http://www.w3.org/2000/svg" xmlns:xlink="http://www.w3.org/1999/xlink" x="0px" y="0px"
	 viewBox="0 0 141 27" style="enable-background:new 0 0 141 27;" xml:space="preserve">
<style type="text/css">
	.st0{fill:url(#SVGID_1_);}
	.st1{fill:#FFFFFF;}
	.st2{fill:url(#SVGID_00000031168043049068320350000011027255872888378278_);}
	.st3{fill:url(#SVGID_00000138559924366637162370000016661829099612596924_);}
	.st4{fill:url(#SVGID_00000166637549349790855120000007816125562644636858_);}
</style>
<linearGradient id="SVGID_1_" gradientUnits="userSpaceOnUse" x1="-4.668529e-02" y1="13.6324" x2="140.1103" y2="16.038" gradientTransform="matrix(1 0 0 -1 0 28)">
	<stop  offset="0" style="stop-color:#FF7DAC"/>
	<stop  offset="1" style="stop-color:#AD28FF"/>
</linearGradient>
<path class="st0" d="M0,10C0,4.5,4.5,0,10,0h81c5.5,0,10,4.5,10,10v7c0,5.5-4.5,10-10,10H10C4.5,27,0,22.5,0,17V10z"/>
<path class="st1" d="M16.2,17.3h-3.5L12.2,19H9l3.8-10h3.4l3.8,10h-3.2L16.2,17.3z M15.5,15.2l-1.1-3.6l-1.1,3.6H15.5z"/>
<path class="st1" d="M19.9,9h2.9l1.1,5.6L25.4,9h2.9l1.6,5.6L31,9h2.9l-2.2,10h-3l-1.8-6.3L25.2,19h-3L19.9,9z"/>
<path class="st1" d="M34.9,9h8.3v2.1H38v1.6h4.8v2H38v2h5.3V19h-8.4V9z"/>
<path class="st1" d="M44.5,15.7l2.9-0.2c0.1,0.5,0.2,0.8,0.4,1.1c0.3,0.4,0.8,0.6,1.4,0.6c0.4,0,0.8-0.1,1-0.3
	c0.2-0.2,0.4-0.5,0.4-0.7c0-0.3-0.1-0.5-0.3-0.7c-0.2-0.2-0.8-0.4-1.6-0.6c-1.4-0.3-2.3-0.7-2.9-1.2c-0.6-0.5-0.9-1.2-0.9-1.9
	c0-0.5,0.1-1,0.4-1.5c0.3-0.5,0.7-0.8,1.3-1.1c0.6-0.3,1.4-0.4,2.5-0.4c1.3,0,2.3,0.2,2.9,0.7c0.7,0.5,1.1,1.2,1.2,2.3L50.3,12
	c-0.1-0.5-0.2-0.8-0.5-1c-0.2-0.2-0.6-0.3-1-0.3c-0.4,0-0.6,0.1-0.8,0.2c-0.2,0.2-0.3,0.3-0.3,0.6c0,0.2,0.1,0.3,0.2,0.4
	c0.1,0.1,0.5,0.3,1,0.4c1.4,0.3,2.3,0.6,2.9,0.9c0.6,0.3,1,0.7,1.3,1.1c0.3,0.4,0.4,0.9,0.4,1.5c0,0.6-0.2,1.2-0.5,1.8
	c-0.4,0.5-0.9,1-1.5,1.2c-0.6,0.3-1.4,0.4-2.4,0.4c-1.7,0-2.9-0.3-3.5-1C45,17.5,44.6,16.7,44.5,15.7z"/>
<path class="st1" d="M54.8,14c0-1.6,0.5-2.9,1.4-3.8c0.9-0.9,2.2-1.4,3.8-1.4c1.7,0,3,0.4,3.9,1.3c0.9,0.9,1.4,2.1,1.4,3.8
	c0,1.2-0.2,2.1-0.6,2.9c-0.4,0.7-1,1.3-1.7,1.8c-0.7,0.4-1.7,0.6-2.8,0.6c-1.1,0-2.1-0.2-2.8-0.5c-0.7-0.4-1.3-0.9-1.8-1.7
	S54.8,15.2,54.8,14z M57.9,14c0,1,0.2,1.7,0.6,2.2c0.4,0.4,0.9,0.7,1.5,0.7c0.7,0,1.2-0.2,1.5-0.6c0.4-0.4,0.5-1.2,0.5-2.3
	c0-0.9-0.2-1.6-0.6-2.1c-0.4-0.4-0.9-0.7-1.5-0.7c-0.6,0-1.1,0.2-1.5,0.7C58.1,12.3,57.9,13,57.9,14z"/>
<path class="st1" d="M66.8,9h4.1l1.6,6.1L74,9h4.1v10h-2.5v-7.6l-2,7.6h-2.3l-2-7.6V19h-2.5V9z"/>
<path class="st1" d="M80,9h8.3v2.1h-5.2v1.6H88v2h-4.8v2h5.3V19H80V9z"/>
<linearGradient id="SVGID_00000163755625742333532030000009132925936562409366_" gradientUnits="userSpaceOnUse" x1="105.993" y1="14.0107" x2="141.993" y2="14.0107" gradientTransform="matrix(1 0 0 -1 0 28)">
	<stop  offset="0" style="stop-color:#FC7BB0"/>
	<stop  offset="1" style="stop-color:#B12CFC"/>
</linearGradient>
<path style="fill:url(#SVGID_00000163755625742333532030000009132925936562409366_);" d="M106,9h2.9l1.1,5.6l1.5-5.6h2.9l1.6,5.6
	l1.1-5.6h2.9l-2.2,10h-3l-1.8-6.3l-1.8,6.3h-3L106,9z"/>
<linearGradient id="SVGID_00000069388324662827837810000003788061198615152035_" gradientUnits="userSpaceOnUse" x1="106" y1="14.0107" x2="142" y2="14.0107" gradientTransform="matrix(1 0 0 -1 0 28)">
	<stop  offset="0" style="stop-color:#FC7BB0"/>
	<stop  offset="1" style="stop-color:#B12CFC"/>
</linearGradient>
<path style="fill:url(#SVGID_00000069388324662827837810000003788061198615152035_);" d="M123.3,11.9l-2.6-0.5
	c0.2-0.8,0.6-1.5,1.3-1.9c0.6-0.4,1.5-0.7,2.6-0.7c1.3,0,2.3,0.2,2.8,0.7c0.6,0.5,0.9,1.1,0.9,1.8c0,0.4-0.1,0.8-0.4,1.2
	c-0.2,0.4-0.6,0.7-1.1,0.9c0.4,0.1,0.7,0.2,0.9,0.3c0.3,0.2,0.6,0.5,0.8,0.8c0.2,0.3,0.3,0.7,0.3,1.2c0,0.6-0.2,1.1-0.5,1.7
	c-0.3,0.5-0.7,0.9-1.3,1.2c-0.6,0.3-1.3,0.4-2.3,0.4c-0.9,0-1.6-0.1-2.2-0.3c-0.5-0.2-1-0.5-1.3-0.9c-0.3-0.4-0.6-0.9-0.8-1.6
	l2.8-0.4c0.1,0.6,0.3,1,0.5,1.2c0.2,0.2,0.5,0.3,0.9,0.3c0.4,0,0.7-0.1,0.9-0.4c0.2-0.3,0.4-0.6,0.4-1.1c0-0.5-0.1-0.8-0.4-1.1
	c-0.2-0.3-0.6-0.4-1-0.4c-0.2,0-0.5,0.1-0.9,0.2l0.1-2c0.2,0,0.3,0,0.4,0c0.4,0,0.7-0.1,0.9-0.3c0.2-0.2,0.4-0.5,0.4-0.8
	c0-0.3-0.1-0.5-0.3-0.7c-0.2-0.2-0.4-0.3-0.8-0.3c-0.3,0-0.6,0.1-0.8,0.3C123.5,11,123.3,11.4,123.3,11.9z"/>
<linearGradient id="SVGID_00000072993608821082784780000014695289662944380807_" gradientUnits="userSpaceOnUse" x1="106" y1="14.0107" x2="142" y2="14.0107" gradientTransform="matrix(1 0 0 -1 0 28)">
	<stop  offset="0" style="stop-color:#FC7BB0"/>
	<stop  offset="1" style="stop-color:#B12CFC"/>
</linearGradient>
<path style="fill:url(#SVGID_00000072993608821082784780000014695289662944380807_);" d="M135.4,15.4v-2.1h4.8v4.3
	c-0.9,0.6-1.7,1.1-2.4,1.3c-0.7,0.2-1.5,0.3-2.5,0.3c-1.2,0-2.2-0.2-2.9-0.6c-0.7-0.4-1.3-1-1.7-1.8c-0.4-0.8-0.6-1.7-0.6-2.8
	c0-1.1,0.2-2,0.7-2.9c0.5-0.8,1.1-1.4,2-1.8c0.7-0.3,1.6-0.5,2.7-0.5c1.1,0,1.9,0.1,2.5,0.3c0.6,0.2,1,0.5,1.4,0.9
	c0.4,0.4,0.6,1,0.8,1.6l-3,0.5c-0.1-0.4-0.3-0.7-0.6-0.9c-0.3-0.2-0.7-0.3-1.1-0.3c-0.7,0-1.2,0.2-1.6,0.7c-0.4,0.5-0.6,1.2-0.6,2.2
	c0,1.1,0.2,1.9,0.6,2.3c0.4,0.5,1,0.7,1.7,0.7c0.3,0,0.7-0.1,1-0.2c0.3-0.1,0.7-0.3,1.1-0.5v-0.9H135.4z"/>
</svg>
