<?xml version="1.0" encoding="utf-8"?>
<!-- Generator: Adobe Illustrator 26.0.2, SVG Export Plug-In . SVG Version: 6.00 Build 0)  -->
<svg version="1.1" id="图层_1" xmlns="http://www.w3.org/2000/svg" xmlns:xlink="http://www.w3.org/1999/xlink" x="0px" y="0px"
	 viewBox="0 0 224.3 54.71" style="enable-background:new 0 0 224.3 54.71;" xml:space="preserve">
<style type="text/css">
	.st0{fill:#FFFFFF;}
</style>
<g id="组_565_00000153700777504847786580000014820725108354600127_" transform="translate(80 80)">
	<g id="组_4_00000031179377450501466900000013644415928610293436_" transform="translate(73.195 14.692)">
		<path id="路径_3_00000098918725196598362020000007479773819123479487_" class="st0" d="M-94.76,11.96h4.27l2.24,10.69
			l2.42-10.69h3.22l2.42,10.73l2.24-10.73h4.24l-4.36,16.44h-3.69l-2.51-10.64l-2.47,10.64h-3.79L-94.76,11.96z"/>
		<path id="路径_4_00000138537522215228572890000013989050472200625309_" class="st0" d="M-70.52,23.51
			c0.16,1.31,1.4,2.18,2.84,2.18c0.9,0.05,1.76-0.39,2.24-1.16h3.78c-0.52,1.27-1.39,2.36-2.51,3.16c-1.02,0.73-2.25,1.12-3.51,1.11
			c-3.63-0.03-6.56-2.99-6.53-6.63c0.03-3.57,2.89-6.47,6.46-6.53c1.76-0.03,3.45,0.68,4.67,1.96c1.48,1.59,2.12,3.78,1.73,5.91
			L-70.52,23.51z M-64.97,20.71c-0.53-1.52-2.2-2.32-3.72-1.79c-0.84,0.29-1.5,0.95-1.79,1.79H-64.97z"/>
		<path id="路径_5_00000082365457445323805210000002395796118490162572_" class="st0" d="M-59.19,11.96h3.69v5.09
			c0.94-0.95,2.24-1.45,3.58-1.4c2.58,0,6.07,1.84,6.07,6.51c0,4.44-3.09,6.67-6.22,6.67c-1.41,0.07-2.76-0.58-3.58-1.73v1.31h-3.53
			V11.96z M-49.55,22.2c0.03-1.68-1.3-3.07-2.98-3.1s-3.07,1.3-3.1,2.98c0,0.04,0,0.08,0,0.12c-0.1,1.65,1.17,3.08,2.82,3.17
			c0.06,0,0.12,0.01,0.18,0.01c1.7,0.01,3.08-1.37,3.09-3.07c0-0.03,0-0.06,0-0.09L-49.55,22.2z"/>
		<path id="路径_6_00000106135070924508391640000017377764848271757461_" class="st0" d="M-43.95,16.76c-0.05-1.59,0.7-3.1,2-4.02
			c1.07-0.72,2.33-1.1,3.62-1.09c3.2,0,5.16,2.18,5.16,4.49c0.03,1.48-0.83,2.83-2.18,3.44c3.09,1.04,3.09,3.42,3.09,3.98
			c0,2.87-2.78,5.16-6.09,5.16c-1.91,0-4.07-0.73-5.13-2.31c-0.54-0.88-0.86-1.88-0.91-2.91h4.24c0.14,0.92,0.96,1.59,1.89,1.53
			c0.93,0.07,1.73-0.62,1.8-1.55c0.01-0.1,0.01-0.2,0-0.3c0-1.56-1.6-1.67-2.2-1.67h-1.49v-3.09h0.71c0.38,0,2.07,0,2.07-1.64
			c0-0.71-0.33-1.44-1.16-1.44c-1.22,0-1.27,1.02-1.29,1.42L-43.95,16.76z"/>
		<path id="路径_7_00000007417683138808841900000012542950813056861597_" class="st0" d="M-18.31,17.47
			c-0.23-0.41-0.52-0.79-0.87-1.11c-0.76-0.67-1.74-1.03-2.76-1.02c-2.07,0-4.49,1.53-4.49,4.78c0,3.44,2.44,4.93,4.51,4.93
			c0.91,0.03,1.81-0.23,2.58-0.73c0.67-0.45,1.15-1.13,1.36-1.91h-4.91v-3.36h9.75c0.11,1.61-0.15,3.22-0.76,4.71
			c-1.6,3.62-5.29,4.98-8,4.98c-4.75,0.07-8.66-3.71-8.73-8.46c0-0.05,0-0.11,0-0.16c0-4.91,3.95-8.47,8.8-8.47
			c3.93,0,7.31,2.64,8.22,5.82L-18.31,17.47z"/>
		<path id="路径_8_00000160907431693398317770000013173753141418316952_" class="st0" d="M1.87,28.4h-3.69v-1.33
			c-0.67,1.2-2.2,1.76-3.64,1.76c-3.91,0-6.2-3.07-6.2-6.6c0-4.04,2.91-6.58,6.2-6.58c1.43-0.09,2.81,0.57,3.64,1.73v-1.31h3.69
			V28.4z M-7.98,22.29c-0.01,1.69,1.35,3.08,3.05,3.09c0.01,0,0.01,0,0.02,0c1.05,0.05,2.04-0.48,2.58-1.38
			c0.3-0.48,0.47-1.02,0.51-1.58c0.04-0.56-0.07-1.12-0.31-1.62c-0.5-1.09-1.6-1.77-2.8-1.71c-1.68,0-3.05,1.36-3.05,3.05
			c0,0.04,0,0.09,0,0.13L-7.98,22.29z"/>
		<path id="路径_9_00000156553665447992742020000008421221155067740328_" class="st0" d="M4.56,16.07H8v1.31
			c0.19-0.34,0.45-0.63,0.76-0.87c0.77-0.6,1.72-0.91,2.69-0.87c1.07-0.02,2.09,0.41,2.82,1.18c0.29,0.3,0.54,0.65,0.73,1.02
			c0.25-0.4,0.54-0.75,0.89-1.07c0.83-0.75,1.91-1.15,3.02-1.13c1.21-0.04,2.38,0.41,3.25,1.24c1.16,1.22,1.33,2.04,1.33,4.78v6.73
			H19.8v-6.56c0.04-0.59-0.05-1.18-0.24-1.73c-0.25-0.67-0.93-1.09-1.64-1c-0.75-0.08-1.47,0.33-1.78,1.02
			c-0.2,0.49-0.29,1.01-0.27,1.53v6.73h-3.69v-6.71c0.02-0.52-0.05-1.04-0.22-1.53c-0.24-0.67-0.91-1.1-1.62-1.04
			c-0.78-0.07-1.52,0.37-1.82,1.09c-0.2,0.52-0.29,1.08-0.27,1.64v6.55H4.56L4.56,16.07z"/>
		<path id="路径_10_00000072280508519280045830000016661469426321845947_" class="st0" d="M29.11,23.51
			c0.16,1.31,1.4,2.18,2.84,2.18c0.9,0.05,1.76-0.39,2.24-1.16h3.78c-0.52,1.27-1.39,2.36-2.51,3.16c-1.02,0.73-2.25,1.12-3.51,1.11
			c-3.63-0.03-6.56-2.99-6.53-6.63c0.03-3.57,2.89-6.47,6.46-6.53c1.76-0.03,3.45,0.68,4.67,1.96c1.48,1.59,2.12,3.78,1.73,5.91
			L29.11,23.51z M34.66,20.71c-0.53-1.52-2.2-2.32-3.72-1.79c-0.84,0.29-1.5,0.95-1.79,1.79H34.66z"/>
		<path id="路径_11_00000029758196635075431320000012695162772044805043_" class="st0" d="M45.68,19.53
			c-0.02-0.27-0.07-0.93-1.16-0.93c-0.78,0-1.04,0.49-1.04,0.82c0,0.56,0.91,0.93,1.89,1.22c2.09,0.58,4.31,1.2,4.31,3.87
			c0,2.71-2.29,4.31-5.02,4.31c-1.87,0-4.69-0.84-5.02-4.09h3.67c0.09,0.69,0.71,1.19,1.4,1.13c0.62,0,1.29-0.35,1.29-0.96
			c0-0.84-0.91-0.96-3.27-1.87c-1.6-0.51-2.93-1.56-2.93-3.22c0-2.56,2.22-4.18,4.78-4.18c1.62,0,4.42,0.64,4.73,3.89L45.68,19.53z"
			/>
	</g>
	<g id="组_5_00000136406588305403115080000004802153796586827681_">
		<path id="路径_12_00000016768557287185734420000017990650197107290513_" class="st0" d="M-54.84,30.61L-54.84,30.61l-4.96-8.63
			l-4.96,8.63l9.92,17.26l7.31-12.72l-4.96-8.63L-54.84,30.61z"/>
		<path id="路径_13_00000111896081183518010490000008125989048222362812_" class="st0" d="M-32.39,17.67h-22.38l3.16,5.5
			l-0.01,0.01h6.14l-1.79,3.12l4.96,8.63l-4.96,8.63l4.96,8.63l4.96-8.63l4.96-8.63l-4.96-8.63L-32.39,17.67z"/>
	</g>
</g>
<g id="组_565_00000015341636290003156090000008917816398409154434_" transform="translate(80 80)">
	<g id="组_4_00000180350241535084931310000017165629436452837524_" transform="translate(73.195 14.692)">
		<path id="路径_3_00000154390321329318163410000007171471694788621467_" d="M-94.76-75.62h4.27l2.24,10.69l2.42-10.69h3.22
			l2.42,10.73l2.24-10.73h4.24l-4.36,16.44h-3.69l-2.51-10.64l-2.47,10.64h-3.79L-94.76-75.62z"/>
		<path id="路径_4_00000145757255215080056060000009088202278025663889_" d="M-70.52-64.06c0.16,1.31,1.4,2.18,2.84,2.18
			c0.9,0.05,1.76-0.39,2.24-1.16h3.78c-0.52,1.27-1.39,2.36-2.51,3.16c-1.02,0.73-2.25,1.12-3.51,1.11
			c-3.63-0.03-6.56-2.99-6.53-6.63c0.03-3.57,2.89-6.47,6.46-6.53c1.76-0.03,3.45,0.68,4.67,1.96c1.48,1.59,2.12,3.78,1.73,5.91
			L-70.52-64.06z M-64.97-66.86c-0.53-1.52-2.2-2.32-3.72-1.79c-0.84,0.29-1.5,0.95-1.79,1.79H-64.97z"/>
		<path id="路径_5_00000049912498286753397820000013593342794565327798_" d="M-59.19-75.62h3.69v5.09
			c0.94-0.95,2.24-1.45,3.58-1.4c2.58,0,6.07,1.84,6.07,6.51c0,4.44-3.09,6.67-6.22,6.67c-1.41,0.07-2.76-0.58-3.58-1.73v1.31h-3.53
			V-75.62z M-49.55-65.37c0.03-1.68-1.3-3.07-2.98-3.1c-1.68-0.03-3.07,1.3-3.1,2.98c0,0.04,0,0.08,0,0.12
			c-0.1,1.65,1.17,3.08,2.82,3.17c0.06,0,0.12,0.01,0.18,0.01c1.7,0.01,3.08-1.37,3.09-3.07c0-0.03,0-0.06,0-0.09L-49.55-65.37z"/>
		<path id="路径_6_00000150782336394434869630000004220777674593370502_" d="M-43.95-70.82c-0.05-1.59,0.7-3.1,2-4.02
			c1.07-0.72,2.33-1.1,3.62-1.09c3.2,0,5.16,2.18,5.16,4.49c0.03,1.48-0.83,2.83-2.18,3.44c3.09,1.04,3.09,3.42,3.09,3.98
			c0,2.87-2.78,5.16-6.09,5.16c-1.91,0-4.07-0.73-5.13-2.31c-0.54-0.88-0.86-1.88-0.91-2.91h4.24c0.14,0.92,0.96,1.59,1.89,1.53
			c0.93,0.07,1.73-0.62,1.8-1.55c0.01-0.1,0.01-0.2,0-0.3c0-1.56-1.6-1.67-2.2-1.67h-1.49v-3.09h0.71c0.38,0,2.07,0,2.07-1.64
			c0-0.71-0.33-1.44-1.16-1.44c-1.22,0-1.27,1.02-1.29,1.42L-43.95-70.82z"/>
		<path id="路径_7_00000053535764892298863110000005399627748086536087_" d="M-18.31-70.11c-0.23-0.41-0.52-0.79-0.87-1.11
			c-0.76-0.67-1.74-1.03-2.76-1.02c-2.07,0-4.49,1.53-4.49,4.78c0,3.44,2.44,4.93,4.51,4.93c0.91,0.03,1.81-0.23,2.58-0.73
			c0.67-0.45,1.15-1.13,1.36-1.91h-4.91v-3.36h9.75c0.11,1.61-0.15,3.22-0.76,4.71c-1.6,3.62-5.29,4.98-8,4.98
			c-4.75,0.07-8.66-3.71-8.73-8.46c0-0.05,0-0.11,0-0.16c0-4.91,3.95-8.47,8.8-8.47c3.93,0,7.31,2.64,8.22,5.82L-18.31-70.11z"/>
		<path id="路径_8_00000015334837528389230480000000763409731125292929_" d="M1.87-59.17h-3.69v-1.33
			c-0.67,1.2-2.2,1.76-3.64,1.76c-3.91,0-6.2-3.07-6.2-6.6c0-4.04,2.91-6.58,6.2-6.58c1.43-0.09,2.81,0.57,3.64,1.73v-1.31h3.69
			V-59.17z M-7.98-65.28c-0.01,1.69,1.35,3.08,3.05,3.09c0.01,0,0.01,0,0.02,0c1.05,0.05,2.04-0.48,2.58-1.38
			c0.3-0.48,0.47-1.02,0.51-1.58c0.04-0.56-0.07-1.12-0.31-1.62c-0.5-1.09-1.6-1.77-2.8-1.71c-1.68,0-3.05,1.36-3.05,3.05
			c0,0.04,0,0.09,0,0.13L-7.98-65.28z"/>
		<path id="路径_9_00000180344591395840861820000016365783726570382255_" d="M4.56-71.51H8v1.31c0.19-0.34,0.45-0.63,0.76-0.87
			c0.77-0.6,1.72-0.91,2.69-0.87c1.07-0.02,2.09,0.41,2.82,1.18c0.29,0.3,0.54,0.65,0.73,1.02c0.25-0.4,0.54-0.75,0.89-1.07
			c0.83-0.75,1.91-1.15,3.02-1.13c1.21-0.04,2.38,0.41,3.25,1.24c1.16,1.22,1.33,2.04,1.33,4.78v6.73H19.8v-6.56
			c0.04-0.59-0.05-1.18-0.24-1.73c-0.25-0.67-0.93-1.09-1.64-1c-0.75-0.08-1.47,0.33-1.78,1.02c-0.2,0.49-0.29,1.01-0.27,1.53v6.73
			h-3.69v-6.71c0.02-0.52-0.05-1.04-0.22-1.53c-0.24-0.67-0.91-1.1-1.62-1.04c-0.78-0.07-1.52,0.37-1.82,1.09
			c-0.2,0.52-0.29,1.08-0.27,1.64v6.55H4.56L4.56-71.51z"/>
		<path id="路径_10_00000085938532778727893150000008568034483017280429_" d="M29.11-64.06c0.16,1.31,1.4,2.18,2.84,2.18
			c0.9,0.05,1.76-0.39,2.24-1.16h3.78c-0.52,1.27-1.39,2.36-2.51,3.16c-1.02,0.73-2.25,1.12-3.51,1.11
			c-3.63-0.03-6.56-2.99-6.53-6.63c0.03-3.57,2.89-6.47,6.46-6.53c1.76-0.03,3.45,0.68,4.67,1.96c1.48,1.59,2.12,3.78,1.73,5.91
			L29.11-64.06z M34.66-66.86c-0.53-1.52-2.2-2.32-3.72-1.79c-0.84,0.29-1.5,0.95-1.79,1.79H34.66z"/>
		<path id="路径_11_00000004533057538538215130000015199560856113263265_" d="M45.68-68.04c-0.02-0.27-0.07-0.93-1.16-0.93
			c-0.78,0-1.04,0.49-1.04,0.82c0,0.56,0.91,0.93,1.89,1.22c2.09,0.58,4.31,1.2,4.31,3.87c0,2.71-2.29,4.31-5.02,4.31
			c-1.87,0-4.69-0.84-5.02-4.09h3.67c0.09,0.69,0.71,1.19,1.4,1.13c0.62,0,1.29-0.35,1.29-0.96c0-0.84-0.91-0.96-3.27-1.87
			c-1.6-0.51-2.93-1.56-2.93-3.22c0-2.56,2.22-4.18,4.78-4.18c1.62,0,4.42,0.64,4.73,3.89L45.68-68.04z"/>
	</g>
	<g id="组_5_00000167396277555622983750000000547645910293269122_">
		<path id="路径_12_00000182525586451002829210000007390773441653150092_" d="M-54.84-56.96L-54.84-56.96l-4.96-8.63l-4.96,8.63
			l9.92,17.26l7.31-12.72l-4.96-8.63L-54.84-56.96z"/>
		<path id="路径_13_00000157272511887917328170000005018362546525783686_" d="M-32.39-69.91h-22.38l3.16,5.5l-0.01,0.01h6.14
			l-1.79,3.12l4.96,8.63l-4.96,8.63l4.96,8.63l4.96-8.63l4.96-8.63l-4.96-8.63L-32.39-69.91z"/>
	</g>
</g>
</svg>
